<?xml version="1.0" standalone="no"?>
<!DOCTYPE svg PUBLIC "-//W3C//DTD SVG 20010904//EN"
 "http://www.w3.org/TR/2001/REC-SVG-20010904/DTD/svg10.dtd">
<svg version="1.0" xmlns="http://www.w3.org/2000/svg"
 width="1280.000000pt" height="786.000000pt" viewBox="0 0 1280.000000 786.000000"
 preserveAspectRatio="xMidYMid meet">
<g transform="translate(0.000000,786.000000) scale(0.100000,-0.100000)"
fill="#000000" stroke="none">
<path d="M2340 7836 c-30 -12 -109 -53 -176 -89 -157 -87 -213 -106 -346 -117
-124 -10 -171 -29 -176 -72 -2 -14 4 -33 15 -43 15 -16 30 -17 123 -12 58 3
146 13 195 22 50 9 113 21 140 25 28 5 86 16 130 26 100 20 358 23 470 5 230
-37 405 -135 470 -261 9 -18 19 -30 21 -27 12 12 -62 135 -110 182 -62 62
-183 124 -299 153 -73 19 -81 24 -162 100 -85 81 -171 133 -217 131 -13 0 -48
-11 -78 -23z m181 -47 c77 -39 158 -129 117 -129 -135 0 -306 -13 -437 -34
-173 -28 -237 -32 -211 -15 8 5 51 30 95 55 239 137 254 143 338 144 39 0 71
-7 98 -21z"/>
<path d="M2140 7373 c-7 -21 -41 -94 -75 -163 -35 -69 -70 -150 -79 -180 -28
-95 -17 -220 29 -310 26 -53 128 -210 133 -206 6 7 -33 87 -81 165 -66 106
-80 155 -75 260 4 82 7 93 75 236 66 138 98 223 89 233 -2 2 -10 -14 -16 -35z"/>
<path d="M2504 7386 c-18 -14 -16 -15 24 -22 24 -4 60 -18 79 -31 l37 -25 -16
24 c-17 25 -74 68 -93 68 -6 0 -20 -6 -31 -14z"/>
<path d="M3022 7244 c-1 -28 -16 -96 -33 -150 -16 -55 -33 -121 -36 -149 -3
-27 -8 -55 -12 -62 -10 -18 -249 -191 -331 -239 -41 -24 -107 -58 -147 -74
-83 -35 -245 -80 -286 -80 -17 0 -30 -7 -34 -17 -3 -10 -21 -35 -40 -56 -51
-57 -39 -72 16 -18 47 46 52 48 123 54 151 13 254 61 547 256 204 136 289 183
382 214 40 14 60 14 160 2 221 -26 345 -68 509 -171 197 -125 283 -173 394
-221 296 -127 455 -223 525 -317 49 -64 52 -48 5 21 -67 98 -174 169 -414 276
-159 71 -200 94 -397 215 -239 147 -348 190 -548 216 -155 21 -181 28 -177 52
2 10 5 42 8 69 l5 50 -16 -35 c-18 -39 -31 -50 -61 -50 -11 0 -57 -18 -102
-40 -45 -21 -84 -35 -87 -30 -3 6 8 53 25 106 25 78 30 110 27 163 -3 59 -3
61 -5 15z"/>
<path d="M2662 7068 c-12 -34 -7 -52 8 -28 9 14 14 60 7 60 -1 0 -8 -14 -15
-32z"/>
<path d="M4990 6270 c-190 -21 -170 -17 -170 -30 0 -6 97 -9 273 -7 264 2 274
1 346 -22 140 -46 296 -176 399 -331 45 -67 172 -315 172 -335 0 -6 -31 -26
-69 -43 -105 -49 -182 -112 -265 -215 -130 -164 -167 -187 -321 -207 -109 -14
-147 -27 -200 -71 -47 -39 -124 -69 -177 -69 -23 0 -28 4 -28 26 0 24 -2 23
-33 -18 -18 -23 -72 -70 -120 -103 -47 -34 -100 -73 -116 -89 -41 -39 -82
-120 -134 -266 -43 -122 -61 -188 -112 -419 -33 -153 -78 -241 -173 -342 -89
-95 -190 -164 -374 -255 -76 -38 -138 -74 -138 -81 0 -17 -7 -18 112 23 249
86 404 197 495 351 38 65 68 160 103 328 35 164 86 334 131 434 36 79 78 126
194 217 50 40 104 90 119 113 16 23 31 41 35 41 3 1 36 2 73 3 58 2 72 6 110
35 67 51 114 69 230 86 152 22 191 46 298 185 83 109 133 152 240 211 52 29
99 56 105 61 24 23 44 6 91 -76 55 -99 128 -178 178 -195 42 -14 56 -7 56 25
0 19 -17 37 -70 76 -43 31 -72 60 -76 75 -9 37 18 97 101 224 86 131 100 169
24 65 -59 -82 -112 -174 -129 -227 -6 -21 -15 -38 -19 -38 -25 0 -96 111 -209
325 -46 88 -104 190 -128 226 -50 76 -55 95 -21 85 24 -8 200 -36 337 -56 102
-14 174 -40 212 -77 24 -23 28 -24 28 -9 0 10 -19 38 -43 61 -53 54 -109 71
-277 84 -69 6 -174 18 -234 27 -104 16 -110 19 -160 62 -163 140 -319 171
-666 132z"/>
<path d="M2495 6003 c-11 -2 -31 -6 -45 -10 l-25 -6 25 -7 c14 -5 43 -8 65 -9
56 -2 106 -17 149 -46 44 -30 49 -12 10 34 -35 42 -107 60 -179 44z"/>
<path d="M2579 5926 c-20 -10 -23 -18 -21 -48 1 -20 -2 -39 -8 -43 -5 -3 -33
16 -62 42 -54 50 -55 46 -4 -25 37 -52 109 -102 148 -102 19 0 40 10 59 29 33
33 40 67 12 58 -80 -27 -103 -31 -114 -20 -8 8 -3 16 20 27 24 13 31 23 31 46
0 38 -27 54 -61 36z"/>
<path d="M5490 5884 c-14 -35 -14 -34 20 -23 43 16 86 -2 161 -67 77 -66 117
-90 131 -76 6 6 -22 35 -79 81 -138 112 -213 139 -233 85z"/>
<path d="M2786 5785 c-15 -25 -81 -95 -146 -156 -112 -105 -151 -152 -137
-165 12 -12 104 53 173 121 50 51 82 93 109 147 43 87 44 120 1 53z"/>
<path d="M5427 5774 c-21 -24 -59 -56 -85 -71 -40 -24 -58 -28 -119 -28 l-72
0 21 -22 c25 -27 81 -31 133 -9 42 18 131 100 152 139 22 43 12 40 -30 -9z"/>
<path d="M1926 5668 c-37 -104 -66 -205 -65 -223 0 -5 25 64 54 155 30 90 52
166 51 168 -2 1 -20 -43 -40 -100z"/>
<path d="M1851 5414 c0 -11 3 -14 6 -6 3 7 2 16 -1 19 -3 4 -6 -2 -5 -13z"/>
<path d="M7054 5389 c-17 -5 -39 -18 -49 -29 -10 -11 -44 -95 -75 -187 -32
-93 -73 -213 -93 -269 -43 -122 -55 -183 -63 -323 -10 -162 12 -248 73 -288
36 -24 33 -2 -10 85 -36 73 -41 94 -45 169 -5 100 4 150 63 328 23 72 59 182
79 246 36 113 101 234 133 246 25 10 102 -27 145 -70 24 -23 60 -73 81 -112
43 -80 39 -50 -5 38 -35 71 -101 145 -145 163 -36 16 -45 16 -89 3z"/>
<path d="M3884 5372 c-28 -10 -73 -32 -100 -49 -49 -32 -146 -123 -130 -123 5
0 46 23 92 50 135 82 163 86 164 21 0 -16 16 -40 44 -67 25 -23 42 -45 39 -48
-13 -13 -61 -5 -112 20 -52 24 -54 24 -35 3 48 -53 169 -90 247 -75 36 7 87
46 87 67 0 11 -5 10 -67 -7 -19 -5 -23 -2 -23 15 0 17 -6 21 -35 21 -36 0 -42
9 -25 40 7 13 6 21 -5 30 -12 10 -15 9 -15 -6 0 -40 -15 -48 -49 -28 -56 33
-48 64 17 64 22 0 32 5 32 15 0 38 77 10 202 -73 38 -25 72 -42 76 -38 4 5
-20 33 -53 63 -111 104 -244 144 -351 105z"/>
<path d="M2516 4981 c-3 -5 11 -12 31 -16 49 -9 105 -38 177 -92 73 -55 88
-46 21 13 -89 78 -209 128 -229 95z"/>
<path d="M2370 4912 c0 -5 36 -14 79 -20 159 -23 239 -65 386 -203 66 -63 84
-76 69 -50 -10 18 -56 69 -102 112 -93 88 -187 140 -286 158 -71 13 -146 14
-146 3z"/>
<path d="M2203 4858 c-28 -31 -43 -62 -43 -89 0 -18 6 -13 30 24 16 26 33 47
37 47 5 0 19 9 33 20 l25 20 -31 0 c-19 0 -38 -8 -51 -22z"/>
<path d="M7595 4843 c-104 -14 -62 -28 125 -43 192 -15 262 -29 398 -81 134
-51 142 -54 142 -42 0 27 -164 112 -265 137 -123 31 -290 43 -400 29z"/>
<path d="M8975 4829 c-135 -19 -289 -80 -410 -162 -87 -59 -214 -192 -252
-264 -43 -79 -42 -86 5 -26 94 118 266 247 412 308 84 36 230 75 353 96 71 12
82 12 109 -4 l29 -17 -3 38 -3 37 -90 1 c-49 1 -117 -2 -150 -7z"/>
<path d="M1888 4637 c-109 -147 -123 -176 -123 -267 0 -162 95 -243 368 -317
186 -50 223 -70 336 -178 77 -75 94 -96 83 -106 -50 -52 -426 128 -551 265
-32 35 -45 33 -26 -3 24 -47 142 -158 231 -217 149 -99 283 -136 367 -100 l39
16 69 -41 c117 -70 200 -91 375 -97 117 -3 171 -1 235 12 130 26 253 90 294
152 23 35 12 41 -24 15 -57 -41 -159 -80 -262 -102 -87 -18 -126 -20 -239 -16
-260 10 -350 50 -552 244 -80 78 -157 142 -186 157 -27 13 -112 43 -190 65
-212 61 -301 112 -342 197 -35 70 -21 112 85 259 57 80 100 154 93 161 -2 2
-38 -43 -80 -99z"/>
<path d="M2290 4658 c0 -7 14 -21 30 -30 24 -14 30 -14 30 -3 0 13 -37 45 -52
45 -5 0 -8 -6 -8 -12z"/>
<path d="M4686 4597 c3 -10 9 -15 12 -12 3 3 0 11 -7 18 -10 9 -11 8 -5 -6z"/>
<path d="M1762 4560 c0 -14 2 -19 5 -12 2 6 2 18 0 25 -3 6 -5 1 -5 -13z"/>
<path d="M2601 4514 c-12 -15 -21 -33 -21 -41 0 -11 5 -11 30 2 16 8 47 15 69
15 52 0 71 8 71 31 0 17 -8 19 -64 19 -58 0 -67 -3 -85 -26z"/>
<path d="M9156 4458 c-99 -222 -200 -353 -354 -459 -151 -104 -222 -159 -222
-175 0 -17 7 -16 95 17 169 63 361 268 456 488 35 81 72 201 65 208 -1 2 -19
-34 -40 -79z"/>
<path d="M1751 4518 c0 -9 -4 -25 -7 -35 -5 -17 -5 -17 6 0 6 10 9 25 7 35 -4
15 -5 15 -6 0z"/>
<path d="M2346 4501 c-5 -7 -24 -20 -43 -27 -23 -10 -33 -20 -31 -32 9 -48 93
1 86 50 -2 17 -5 20 -12 9z"/>
<path d="M7461 4444 c-12 -55 -8 -82 9 -54 14 23 23 91 13 101 -5 5 -14 -15
-22 -47z"/>
<path d="M2200 4415 c0 -3 12 -28 26 -56 95 -188 314 -233 544 -113 65 34 170
117 170 135 0 5 -26 -8 -57 -28 -274 -175 -501 -173 -635 5 -27 35 -48 60 -48
57z"/>
<path d="M6696 4327 c-78 -43 -171 -139 -228 -234 -50 -83 -102 -226 -112
-308 -5 -44 -3 -40 19 33 50 167 115 264 281 420 64 60 112 112 107 115 -5 3
-35 -9 -67 -26z"/>
<path d="M2565 4340 c3 -5 8 -10 11 -10 2 0 4 5 4 10 0 6 -5 10 -11 10 -5 0
-7 -4 -4 -10z"/>
<path d="M4710 4293 c0 -41 3 -54 10 -43 13 20 13 87 0 95 -6 4 -10 -16 -10
-52z"/>
<path d="M1580 4199 c-12 -23 -20 -43 -18 -45 3 -2 14 17 26 41 27 56 20 60
-8 4z"/>
<path d="M3285 4120 c-3 -5 -1 -18 4 -27 9 -16 10 -14 11 10 0 28 -5 34 -15
17z"/>
<path d="M4850 4056 c0 -12 10 -16 47 -16 89 0 201 -39 403 -143 107 -55 263
-134 345 -176 198 -101 297 -168 428 -291 59 -56 107 -97 107 -92 0 23 -85
135 -148 194 -104 98 -210 162 -521 318 -321 160 -448 208 -576 217 -75 5 -85
4 -85 -11z"/>
<path d="M7050 4018 c-22 -10 -14 -12 61 -19 103 -9 195 -47 263 -109 52 -48
61 -42 17 11 -34 40 -121 90 -200 113 -63 18 -105 19 -141 4z"/>
<path d="M1810 4000 c7 -14 30 -50 50 -80 60 -89 140 -256 140 -293 0 -147
134 -324 344 -454 376 -233 759 -359 1031 -339 291 21 601 151 860 359 100 81
296 281 359 367 83 113 136 242 136 335 0 28 -2 26 -24 -20 -38 -82 -143 -212
-286 -355 -278 -277 -540 -435 -850 -510 -133 -33 -359 -33 -509 -1 -404 86
-924 361 -1013 535 -19 36 -19 39 -3 26 17 -14 18 -13 12 20 -10 49 -89 211
-142 289 -52 76 -125 161 -105 121z"/>
<path d="M4882 3920 c98 -286 124 -374 159 -550 67 -342 89 -382 397 -737 111
-128 227 -285 276 -373 17 -31 46 -78 63 -105 44 -67 211 -397 259 -512 21
-51 40 -91 42 -88 7 7 -79 226 -137 350 -32 66 -88 174 -126 240 -37 66 -68
131 -67 145 1 30 52 156 89 220 14 25 83 133 153 240 70 107 135 209 144 227
9 18 25 37 36 43 10 6 17 17 14 24 -3 8 4 33 16 56 12 24 37 82 55 129 l33 86
181 3 180 2 73 -67 c39 -38 63 -54 51 -38 -11 17 -30 39 -42 49 -34 31 -27 46
22 46 57 0 180 -19 190 -29 4 -4 21 -5 38 -3 27 4 28 5 12 18 -17 13 -15 17
22 49 21 20 61 43 87 53 48 17 63 32 31 32 -41 0 -122 -49 -149 -89 -15 -23
-29 -41 -33 -41 -3 0 -49 7 -101 15 -52 8 -116 15 -141 15 -37 0 -59 9 -118
46 -39 26 -74 44 -77 42 -2 -3 14 -17 36 -32 22 -14 40 -31 40 -36 0 -6 -38
-10 -92 -10 -51 0 -117 -3 -147 -7 l-54 -6 7 64 c4 35 9 78 12 94 2 17 -5 -3
-16 -43 -43 -161 -175 -423 -221 -437 -13 -4 -18 -12 -15 -22 4 -8 -25 -61
-67 -126 -165 -252 -215 -357 -251 -519 -4 -16 -11 -28 -16 -28 -5 0 -34 39
-66 88 -88 136 -182 257 -305 392 -226 251 -264 326 -314 620 -26 151 -55 256
-108 390 -27 69 -51 127 -54 130 -4 3 -4 -2 -1 -10z"/>
<path d="M7257 3864 c-6 -7 -2 -41 10 -74 7 -20 21 14 22 53 1 25 -16 36 -32
21z"/>
<path d="M7139 3771 c11 -30 30 -64 42 -77 51 -55 141 -69 214 -34 96 46 99
80 5 55 -125 -33 -186 -12 -265 90 -11 15 -10 6 4 -34z"/>
<path d="M8064 3712 c-66 -23 -96 -43 -129 -86 -29 -38 -55 -114 -54 -155 0
-22 3 -19 15 15 18 52 76 115 129 142 44 22 137 42 194 42 55 0 160 -30 236
-67 l70 -34 -40 35 c-120 106 -296 151 -421 108z"/>
<path d="M9046 3635 c-12 -73 -104 -351 -139 -420 -71 -142 -312 -464 -439
-587 -49 -49 -94 -88 -99 -88 -5 0 -9 -11 -9 -25 0 -36 39 -33 98 8 26 19 52
36 58 38 45 17 306 383 382 536 81 160 168 460 160 552 -3 35 -3 34 -12 -14z"/>
<path d="M3605 3640 c34 -54 271 -90 335 -50 29 18 -4 25 -138 31 -75 3 -150
11 -165 17 -35 15 -40 15 -32 2z"/>
<path d="M8160 3586 c0 -27 15 -42 25 -26 8 13 -3 50 -16 50 -5 0 -9 -11 -9
-24z"/>
<path d="M7435 3544 c-16 -17 -39 -35 -50 -42 -14 -8 -17 -14 -9 -22 19 -19
63 6 80 46 21 49 14 55 -21 18z"/>
<path d="M8287 3533 c-90 -61 -199 -64 -272 -9 -41 32 -45 23 -10 -25 70 -95
204 -89 304 15 46 48 35 58 -22 19z"/>
<path d="M7028 3273 c7 -3 16 -2 19 1 4 3 -2 6 -13 5 -11 0 -14 -3 -6 -6z"/>
<path d="M7426 3271 c-5 -7 4 -16 23 -22 36 -13 37 -17 14 -35 -17 -12 -16
-15 14 -45 17 -17 31 -26 30 -18 -1 27 16 79 27 80 38 3 87 -5 125 -22 24 -11
46 -17 49 -14 9 8 -21 36 -62 58 -48 24 -208 38 -220 18z"/>
<path d="M7068 3263 c7 -3 16 -2 19 1 4 3 -2 6 -13 5 -11 0 -14 -3 -6 -6z"/>
<path d="M7550 3175 c0 -3 6 -15 13 -26 10 -17 9 -23 -10 -39 -22 -17 -30 -49
-17 -63 4 -3 19 6 35 20 15 15 47 34 71 43 31 11 43 21 43 35 0 17 -7 20 -42
20 -22 0 -45 3 -49 8 -8 8 -44 10 -44 2z"/>
<path d="M6797 3146 c-4 -9 -19 -17 -34 -17 -16 -1 -6 -5 22 -9 28 -4 55 -4
60 0 6 4 19 10 30 13 12 3 6 5 -15 6 -20 0 -41 6 -47 12 -7 7 -12 6 -16 -5z"/>
<path d="M6934 3149 c-8 -13 25 -24 37 -12 7 7 3 12 -10 16 -12 3 -24 1 -27
-4z"/>
<path d="M6683 3113 c9 -2 25 -2 35 0 9 3 1 5 -18 5 -19 0 -27 -2 -17 -5z"/>
<path d="M6560 3100 c-27 -6 -29 -8 -10 -8 14 -1 43 3 65 7 33 7 35 9 10 9
-16 -1 -46 -4 -65 -8z"/>
<path d="M6483 3083 c9 -2 23 -2 30 0 6 3 -1 5 -18 5 -16 0 -22 -2 -12 -5z"/>
<path d="M6318 3065 c-37 -8 -75 -19 -85 -25 -17 -10 -16 -11 2 -6 11 2 64 12
118 21 53 10 97 19 97 21 0 8 -66 2 -132 -11z"/>
<path d="M6835 3070 c-3 -6 1 -13 10 -16 19 -8 30 0 20 15 -8 14 -22 14 -30 1z"/>
<path d="M6980 3073 c0 -5 7 -17 15 -27 20 -26 19 -46 -2 -47 -10 -1 2 -5 27
-9 25 -4 52 -4 60 1 12 7 11 8 -6 9 -12 0 -38 18 -58 40 -20 22 -36 37 -36 33z"/>
<path d="M8964 3029 c-11 -18 15 -27 100 -34 45 -3 149 -19 231 -35 83 -16
188 -34 235 -40 172 -22 255 -48 409 -127 80 -41 184 -91 231 -110 128 -53
210 -97 265 -141 118 -94 291 -255 383 -358 65 -72 129 -131 184 -169 45 -32
98 -69 116 -83 19 -14 32 -19 32 -12 0 15 -49 61 -158 148 -46 37 -128 118
-183 180 -114 131 -114 124 -7 178 117 59 225 85 378 91 233 9 332 -22 586
-187 194 -127 286 -174 429 -222 181 -61 323 -90 473 -96 115 -4 132 -3 132
11 0 18 -7 21 -123 42 -293 53 -657 204 -932 386 -222 147 -276 164 -495 163
-117 0 -161 -5 -229 -23 -115 -30 -204 -76 -272 -138 -31 -29 -62 -53 -69 -53
-6 0 -60 43 -118 96 -143 127 -258 203 -378 249 -55 21 -152 65 -216 97 -152
75 -243 105 -376 124 -59 8 -198 28 -310 44 -214 32 -306 37 -318 19z"/>
<path d="M6875 2980 c-7 -11 16 -11 60 0 28 7 28 8 -12 9 -23 0 -45 -3 -48 -9z"/>
<path d="M5945 2951 c-79 -39 -66 -39 16 -1 35 16 60 29 54 30 -5 0 -37 -13
-70 -29z"/>
<path d="M6815 2960 c-13 -5 -14 -9 -5 -9 8 0 24 4 35 9 13 5 14 9 5 9 -8 0
-24 -4 -35 -9z"/>
<path d="M1265 2894 c-37 -138 -142 -311 -315 -523 -120 -146 -196 -222 -336
-333 -181 -144 -238 -214 -268 -333 -23 -86 -19 -88 18 -10 44 93 94 147 245
264 186 145 331 303 485 529 95 141 167 303 190 435 11 59 1 43 -19 -29z"/>
<path d="M7417 2954 c-4 -4 -7 -17 -7 -30 0 -18 7 -23 43 -29 23 -4 66 -15 95
-26 62 -23 72 -23 72 -6 0 17 -36 50 -75 70 -36 18 -117 32 -128 21z"/>
<path d="M6730 2930 c-8 -5 -10 -10 -5 -10 6 0 17 5 25 10 8 5 11 10 5 10 -5
0 -17 -5 -25 -10z"/>
<path d="M6255 2888 c-102 -25 -109 -27 -103 -33 5 -6 198 41 206 50 8 8 -16
4 -103 -17z"/>
<path d="M8086 2872 c-3 -6 -1 -14 5 -17 15 -10 25 3 12 16 -7 7 -13 7 -17 1z"/>
<path d="M8063 2793 c-7 -3 -13 -11 -13 -18 0 -7 -23 -32 -50 -55 -28 -24 -49
-45 -46 -47 6 -7 76 19 76 28 0 4 12 21 26 38 26 31 30 62 7 54z"/>
<path d="M6319 2695 c-34 -22 -58 -55 -41 -55 17 0 82 52 82 65 0 19 1 19 -41
-10z"/>
<path d="M7341 2636 c19 -20 219 -63 219 -47 0 9 -52 22 -145 37 -22 3 -49 8
-60 11 -11 3 -17 3 -14 -1z"/>
<path d="M2435 1994 c11 -2 45 -9 75 -15 108 -22 222 -91 344 -208 108 -105
184 -222 241 -374 24 -65 30 -54 6 14 -39 115 -115 246 -197 341 -126 147
-315 251 -449 247 -22 -1 -31 -3 -20 -5z"/>
<path d="M9240 1980 c0 -15 37 -35 167 -90 67 -28 149 -68 182 -88 82 -50 215
-162 204 -173 -4 -4 -53 -10 -108 -12 -85 -3 -109 -8 -158 -32 -68 -33 -140
-107 -169 -172 -24 -54 -28 -139 -9 -206 8 -26 11 -50 7 -54 -3 -3 -31 19 -61
49 -46 46 -55 61 -55 91 0 86 81 205 178 259 62 35 67 61 13 66 -51 5 -74 -4
-116 -45 -81 -78 -126 -240 -104 -374 11 -67 29 -106 55 -116 9 -3 33 0 55 6
28 9 39 17 39 31 0 32 23 23 75 -30 57 -58 55 -65 -34 -110 -87 -43 -199 -77
-317 -96 -148 -23 -155 -29 -43 -32 166 -5 291 32 409 122 61 46 66 48 95 36
72 -29 132 -41 192 -37 72 5 119 29 148 74 14 23 37 38 80 53 108 40 195 91
238 141 27 32 45 45 52 39 37 -31 323 -62 428 -46 27 4 59 18 76 32 16 13 35
24 41 24 30 0 84 -56 110 -114 45 -99 80 -124 215 -152 160 -34 361 -28 470
14 85 32 144 103 145 172 0 22 -3 21 -23 -15 -24 -43 -106 -97 -142 -93 -11 1
-29 -3 -41 -9 -29 -16 -257 -25 -329 -13 -33 5 -73 11 -90 14 -112 15 -161 48
-210 145 -34 68 -61 91 -110 91 -13 0 -26 -4 -29 -8 -3 -5 -40 -17 -82 -27
-63 -15 -101 -17 -223 -12 -204 9 -211 11 -226 70 -17 66 -38 85 -123 110 -66
19 -83 30 -159 99 -138 126 -342 287 -402 317 -58 29 -280 111 -300 111 -6 0
-11 -4 -11 -10z m579 -402 c28 -7 59 -26 85 -52 49 -47 82 -67 156 -90 30 -10
79 -29 107 -42 130 -59 51 -146 -212 -236 -130 -45 -166 -67 -147 -91 12 -14
10 -17 -13 -23 -42 -11 -145 2 -206 25 -77 29 -170 91 -204 135 -32 43 -43
111 -25 156 28 67 228 215 310 230 40 8 86 4 149 -12z"/>
<path d="M9808 1413 c7 -3 16 -2 19 1 4 3 -2 6 -13 5 -11 0 -14 -3 -6 -6z"/>
<path d="M9906 1319 c-16 -33 -26 -62 -24 -64 2 -3 17 22 33 55 16 33 26 62
24 65 -3 3 -18 -22 -33 -56z"/>
<path d="M9808 1303 c7 -3 16 -2 19 1 4 3 -2 6 -13 5 -11 0 -14 -3 -6 -6z"/>
<path d="M9855 1211 c-5 -9 -22 -12 -54 -8 -39 5 -42 4 -21 -5 14 -6 37 -17
51 -23 36 -17 56 -4 43 26 -8 17 -13 19 -19 10z"/>
<path d="M9065 1850 c-9 -14 -14 -12 75 -39 92 -29 145 -55 254 -126 129 -84
180 -71 91 24 -73 78 -192 127 -357 146 -37 4 -58 2 -63 -5z"/>
<path d="M12120 1820 c-98 -21 -186 -32 -324 -40 -130 -7 -195 -15 -209 -25
-18 -13 -17 -14 24 -25 27 -7 67 -9 104 -5 33 3 124 8 201 10 151 3 238 20
314 58 42 22 67 58 38 56 -7 0 -74 -13 -148 -29z"/>
<path d="M3658 1811 c-36 -16 -81 -39 -100 -52 -46 -33 -146 -128 -171 -164
-16 -24 -10 -20 29 15 79 73 141 111 263 160 63 26 117 52 119 59 7 21 -71 11
-140 -18z"/>
<path d="M5085 1826 c-146 -46 -329 -196 -413 -338 -39 -66 -79 -174 -87 -238
l-5 -45 19 53 c57 152 142 278 249 367 123 103 242 155 351 155 55 0 131 -26
145 -49 4 -6 11 -11 17 -11 33 0 -31 77 -86 101 -47 22 -131 24 -190 5z"/>
<path d="M11280 1812 c0 -5 27 -26 61 -46 162 -97 285 -213 348 -329 42 -77
34 -31 -10 61 -38 78 -121 169 -207 226 -103 67 -192 108 -192 88z"/>
<path d="M1445 1659 c-125 -14 -124 -25 2 -21 84 3 144 -1 208 -13 119 -22
390 -112 511 -169 111 -53 127 -56 93 -20 -54 57 -157 103 -374 163 -218 62
-316 75 -440 60z"/>
<path d="M11252 1625 c-65 -30 -148 -89 -163 -117 -9 -17 -3 -15 33 10 23 16
75 45 114 65 114 57 127 92 16 42z"/>
<path d="M4018 1473 c-16 -2 -28 -9 -28 -14 0 -5 1 -9 3 -9 1 0 55 -5 120 -10
142 -11 190 -30 295 -118 64 -55 120 -92 137 -92 20 0 -5 37 -63 91 -128 121
-299 177 -464 152z"/>
<path d="M6715 1411 c8 -68 37 -145 114 -298 33 -68 72 -155 86 -195 13 -40
25 -63 25 -52 0 41 -42 159 -95 264 -64 128 -101 214 -120 283 l-15 52 5 -54z"/>
<path d="M996 1390 c13 -48 57 -126 124 -220 37 -52 77 -114 90 -137 13 -24
25 -41 27 -39 8 8 -67 144 -122 220 -31 43 -72 106 -91 140 -20 33 -32 50 -28
36z"/>
<path d="M1771 1235 c-109 -24 -206 -77 -277 -150 -46 -47 -64 -73 -64 -92 0
-18 -13 -38 -42 -65 -23 -21 -37 -38 -31 -38 6 0 16 6 22 14 7 8 48 38 91 66
44 29 80 59 80 67 0 16 -23 6 -72 -30 -51 -38 -42 -7 13 46 105 101 249 149
449 150 198 0 357 -33 780 -163 459 -140 1022 -284 1271 -325 169 -27 291 -18
400 31 80 36 81 61 2 32 -48 -17 -81 -21 -188 -21 -144 -1 -200 8 -505 80
-339 79 -546 135 -1055 286 -325 96 -445 119 -645 123 -119 3 -183 0 -229 -11z"/>
<path d="M4571 1184 c0 -11 3 -14 6 -6 3 7 2 16 -1 19 -3 4 -6 -2 -5 -13z"/>
<path d="M5787 1188 c-35 -10 -105 -63 -95 -73 3 -3 25 4 49 15 24 11 56 20
71 20 36 0 58 10 58 25 0 7 -7 16 -16 19 -18 7 -17 7 -67 -6z"/>
<path d="M8600 1134 c0 -26 71 -123 169 -234 82 -92 115 -137 127 -173 34
-101 -3 -178 -124 -259 -39 -27 -72 -53 -72 -59 0 -5 22 -9 50 -9 41 0 55 5
86 33 53 46 76 104 82 208 5 102 -8 170 -47 231 -27 43 -271 278 -271 262z"/>
<path d="M7819 1071 c-24 -25 -29 -37 -28 -78 l1 -48 9 44 c5 29 20 57 41 78
17 18 26 33 19 33 -7 0 -26 -13 -42 -29z"/>
<path d="M6116 1018 c-10 -29 -35 -81 -57 -116 -21 -35 -39 -66 -39 -69 0 -20
66 60 86 105 22 47 42 132 33 132 -3 0 -13 -24 -23 -52z"/>
<path d="M156 811 c-98 -106 -156 -198 -156 -247 0 -12 9 -42 19 -66 42 -99
180 -167 309 -154 37 4 77 8 90 9 12 1 22 6 22 10 0 5 9 20 20 34 24 31 25 43
5 43 -8 0 -15 -4 -15 -8 0 -33 -146 -42 -245 -16 -121 31 -191 95 -181 163 6
41 34 81 122 181 68 77 120 148 113 154 -2 2 -49 -45 -103 -103z"/>
<path d="M5585 900 c5 -8 31 -44 58 -80 83 -110 90 -107 11 6 -40 56 -91 112
-69 74z"/>
<path d="M7816 880 c20 -72 244 -453 244 -415 -1 33 -37 104 -109 210 -38 55
-85 129 -105 165 -21 36 -34 54 -30 40z"/>
<path d="M4492 804 c-25 -71 -24 -100 1 -37 15 40 31 103 25 103 -2 0 -13 -30
-26 -66z"/>
<path d="M5390 869 c0 -13 89 -171 90 -159 0 22 -54 133 -73 149 -10 7 -17 12
-17 10z"/>
<path d="M5932 815 c-19 -8 -62 -18 -95 -22 -45 -6 -62 -12 -62 -23 0 -22 124
-26 164 -6 84 44 78 88 -7 51z"/>
<path d="M7165 690 c-69 -13 -137 -40 -132 -54 3 -8 59 -11 193 -11 163 0 201
-3 277 -22 109 -28 188 -29 245 -3 65 29 53 40 -45 40 -59 0 -123 9 -193 26
-115 27 -267 38 -345 24z"/>
<path d="M4444 545 c4 -16 22 -45 41 -63 19 -18 35 -38 35 -45 0 -8 -13 -31
-30 -53 -39 -51 -40 -84 -2 -84 34 0 86 31 108 65 22 33 14 41 -17 16 -14 -11
-34 -21 -44 -23 -22 -3 -22 7 -3 55 10 25 14 27 74 27 45 0 77 6 108 21 l44
22 28 -20 c52 -37 114 -64 168 -74 73 -13 126 8 166 67 37 52 39 66 5 25 -60
-70 -167 -78 -282 -20 -58 29 -68 38 -65 57 l2 24 -46 -27 c-82 -48 -224 -31
-276 34 l-21 26 7 -30z"/>
<path d="M5735 531 c-3 -6 -13 -11 -21 -11 -8 0 -28 -10 -44 -21 -24 -19 -38
-21 -85 -16 -31 3 -67 13 -81 22 -23 15 -25 14 -35 -8 -25 -56 -150 -84 -236
-54 -24 8 -43 12 -43 8 0 -15 82 -52 128 -58 54 -6 119 19 145 58 13 18 21 20
57 14 23 -4 51 -16 61 -26 10 -10 26 -19 34 -19 20 0 19 -27 -1 -38 -12 -6
-13 -11 -5 -16 7 -4 18 5 29 23 21 38 42 40 42 4 0 -16 4 -34 9 -41 12 -20 21
9 21 69 0 35 6 58 22 79 12 16 19 32 16 36 -3 3 -9 1 -13 -5z"/>
<path d="M1326 463 c-18 -57 -152 -133 -234 -133 -42 0 -56 7 -65 32 -5 14
-11 12 -40 -17 -40 -40 -102 -59 -175 -53 -69 6 -82 19 -58 59 l18 30 -52 -39
c-80 -60 -156 -77 -224 -48 -19 8 -39 22 -45 33 -8 14 -10 15 -11 3 0 -23 28
-58 60 -75 43 -22 99 -18 159 11 l53 27 41 -23 c31 -18 55 -23 99 -22 66 2
100 16 142 61 l29 30 25 -24 c42 -42 141 -29 216 29 35 26 81 107 73 128 -2 8
-7 4 -11 -9z"/>
<path d="M4980 325 c-8 -9 -24 -21 -37 -26 -16 -6 -23 -17 -23 -34 0 -14 3
-25 6 -25 17 0 46 24 60 51 18 36 14 59 -6 34z"/>
<path d="M5339 307 c-9 -12 -25 -21 -37 -20 -14 1 -24 -8 -32 -28 -7 -16 -10
-32 -7 -35 13 -13 49 10 73 46 28 42 30 72 3 37z"/>
<path d="M6086 290 c13 -101 75 -184 169 -230 59 -28 188 -60 242 -60 67 0
236 44 288 74 64 38 117 109 140 186 4 16 -3 9 -23 -20 -16 -25 -42 -57 -58
-72 -113 -105 -410 -130 -582 -47 -89 42 -109 61 -148 144 l-34 70 6 -45z"/>
<path d="M8020 280 c0 -34 45 -85 100 -112 104 -52 389 -80 507 -49 62 15 126
59 153 104 29 47 25 52 -17 18 -48 -38 -102 -57 -204 -71 -71 -10 -83 -9 -99
5 -13 12 -20 13 -25 4 -9 -13 -138 -7 -203 10 -20 5 -59 15 -86 22 -31 8 -62
25 -87 49 -29 27 -39 32 -39 20z"/>
<path d="M160 260 c-19 -15 -21 -20 -9 -20 16 0 46 27 38 35 -2 2 -15 -5 -29
-15z"/>
<path d="M61 247 c-7 -9 -11 -24 -9 -34 3 -16 5 -15 17 5 15 29 10 50 -8 29z"/>
<path d="M1180 220 c-8 -5 -25 -10 -37 -10 -20 0 -42 -34 -30 -47 10 -10 97
36 97 51 0 18 -9 20 -30 6z"/>
<path d="M468 152 c-33 -25 -48 -44 -48 -59 0 -27 8 -28 55 -8 35 14 55 46 55
86 0 26 -7 24 -62 -19z"/>
<path d="M850 180 c-8 -5 -22 -7 -31 -5 -20 7 -53 -29 -46 -49 7 -18 35 -11
72 18 29 23 33 54 5 36z"/>
</g>
</svg>
