<?xml version="1.0" standalone="no"?>
<!DOCTYPE svg PUBLIC "-//W3C//DTD SVG 20010904//EN"
 "http://www.w3.org/TR/2001/REC-SVG-20010904/DTD/svg10.dtd">
<svg version="1.0" xmlns="http://www.w3.org/2000/svg"
 width="1280.000000pt" height="800.000000pt" viewBox="0 0 1280.000000 800.000000"
 preserveAspectRatio="xMidYMid meet">
<g transform="translate(0.000000,800.000000) scale(0.100000,-0.100000)"
fill="#000000" stroke="none">
<path d="M10285 7825 c-2322 -71 -3956 -112 -5384 -136 -758 -12 -1710 -6
-1801 11 -84 17 -957 24 -1174 11 -694 -45 -1118 -164 -1346 -378 -126 -118
-180 -244 -180 -419 0 -179 47 -338 209 -706 103 -235 143 -343 155 -414 l7
-41 -93 -46 c-222 -109 -353 -289 -419 -577 -26 -113 -36 -364 -19 -496 36
-293 147 -555 293 -692 78 -72 144 -102 230 -102 37 0 67 -4 67 -8 0 -5 -27
-30 -60 -55 -33 -26 -73 -65 -90 -88 -132 -182 -94 -496 93 -774 58 -86 172
-196 239 -230 32 -17 58 -34 58 -40 0 -5 -26 -23 -58 -40 -113 -59 -261 -152
-345 -218 -112 -88 -189 -175 -235 -267 -35 -71 -37 -79 -37 -175 0 -93 2
-104 33 -162 217 -419 1183 -741 2497 -835 220 -15 903 -15 1115 0 523 39
1118 127 1165 173 19 19 20 33 20 282 0 247 2 269 27 387 106 488 366 898 683
1075 221 124 493 186 815 186 665 0 1190 -272 1423 -736 59 -119 147 -393 147
-460 0 -17 -7 -41 -16 -54 -13 -18 -7 -16 32 12 60 41 223 90 309 91 41 1 62
5 66 15 3 8 117 52 255 98 137 47 252 88 256 91 4 4 3 24 -2 45 -5 23 -4 52 2
75 10 36 59 94 88 104 11 3 3 18 -33 58 -59 66 -150 246 -173 345 -36 148 -18
372 41 519 22 55 24 69 15 117 -10 56 -30 286 -30 345 0 27 4 34 19 34 10 0
97 -30 192 -66 l174 -66 70 18 c54 14 110 18 243 19 112 0 175 4 180 11 4 6
63 75 131 154 l125 143 18 -23 c10 -13 17 -29 14 -37 -3 -8 1 -16 9 -19 8 -4
15 -17 15 -30 0 -13 5 -24 11 -24 7 0 9 -10 7 -24 -3 -16 0 -27 10 -31 8 -3
12 -13 9 -24 -3 -12 1 -22 10 -25 10 -4 13 -14 10 -27 -3 -12 0 -22 9 -26 8
-3 14 -15 14 -28 0 -13 7 -26 16 -29 10 -4 14 -14 11 -25 -2 -11 3 -23 15 -30
10 -6 16 -16 12 -22 -3 -6 4 -17 16 -26 12 -8 19 -21 16 -29 -3 -8 4 -19 15
-25 12 -6 18 -17 15 -25 -3 -8 4 -18 15 -25 13 -6 19 -18 16 -28 -2 -11 4 -23
15 -30 14 -9 17 -16 9 -24 -7 -9 -4 -16 10 -26 12 -7 18 -18 15 -26 -2 -7 2
-19 10 -26 8 -7 12 -20 9 -30 -4 -11 -1 -19 5 -19 8 0 10 -10 8 -25 -3 -14 -1
-25 5 -25 5 0 7 -11 5 -25 -3 -14 -1 -25 5 -25 5 0 7 -11 5 -25 -3 -14 -1 -28
4 -31 5 -4 7 -17 4 -29 -3 -13 -2 -27 4 -30 7 -4 7 -12 0 -25 -7 -13 -6 -20 3
-23 9 -3 9 -9 0 -25 -10 -16 -10 -22 0 -25 9 -3 9 -9 0 -24 -8 -15 -9 -23 -1
-31 8 -8 8 -15 0 -25 -9 -10 -9 -16 0 -25 8 -8 8 -15 -1 -25 -6 -8 -8 -22 -5
-32 4 -10 1 -20 -6 -25 -11 -7 -11 -11 -1 -23 8 -10 9 -17 1 -22 -5 -3 -7 -17
-4 -31 4 -17 1 -26 -11 -30 -12 -5 -13 -9 -4 -14 7 -5 9 -15 4 -26 -4 -11 -8
-28 -9 -39 -1 -18 -9 -20 -78 -23 -61 -2 -76 -6 -72 -17 4 -10 -5 -16 -31 -21
-26 -5 -33 -9 -23 -15 22 -14 78 -10 84 6 15 38 169 45 162 7 -2 -9 6 -22 17
-27 11 -6 20 -17 20 -25 0 -8 10 -21 23 -28 16 -9 21 -19 17 -32 -4 -14 0 -19
17 -22 16 -2 23 -9 22 -25 0 -15 7 -24 24 -28 18 -4 23 -11 19 -25 -3 -13 1
-21 15 -26 15 -4 18 -12 14 -29 -3 -13 -2 -26 3 -29 15 -9 43 5 37 19 -6 18
14 35 41 35 16 0 27 8 33 25 9 24 13 25 94 25 63 0 87 -4 96 -15 7 -9 10 -18
6 -22 -3 -3 4 -11 17 -18 12 -6 21 -19 21 -28 -1 -9 7 -19 17 -22 11 -4 19
-16 19 -30 0 -12 7 -26 16 -29 10 -4 14 -14 11 -26 -3 -11 -1 -23 5 -26 5 -3
8 -14 5 -24 -3 -13 2 -20 19 -24 15 -4 24 -14 24 -26 0 -13 10 -24 25 -30 15
-6 25 -17 25 -29 0 -13 8 -21 23 -23 16 -2 22 -9 21 -25 0 -15 5 -23 16 -23
20 0 46 -27 36 -37 -3 -3 3 -12 14 -20 11 -8 20 -21 20 -30 0 -9 8 -21 17 -28
15 -11 15 -15 4 -29 -9 -11 -10 -16 -2 -16 6 0 11 -9 11 -20 0 -13 -7 -20 -19
-20 -13 0 -21 -8 -23 -22 -2 -15 -11 -24 -25 -26 -13 -2 -23 -10 -23 -18 0 -8
-7 -14 -15 -14 -8 0 -15 7 -15 15 0 12 -17 15 -96 15 -62 0 -93 -4 -89 -10 4
-6 -11 -18 -32 -28 -26 -12 -37 -22 -35 -34 2 -12 -5 -19 -21 -23 -32 -8 -67
10 -67 34 0 11 -9 21 -21 24 -16 4 -20 11 -16 26 4 16 0 21 -13 21 -11 0 -22
5 -25 10 -4 6 -11 8 -16 5 -15 -10 -10 -22 12 -28 16 -4 20 -11 16 -26 -3 -13
1 -21 15 -24 13 -4 18 -12 16 -24 -2 -11 5 -22 17 -28 11 -6 20 -19 20 -28 0
-24 24 -37 57 -30 30 6 60 -11 52 -31 -3 -7 9 -16 28 -21 22 -7 33 -16 32 -27
-1 -14 6 -18 35 -18 20 0 46 -3 58 -6 18 -5 25 -1 32 19 5 13 16 27 25 30 9 4
13 12 10 20 -3 8 2 19 10 26 8 7 12 19 9 28 -7 18 14 34 34 26 10 -4 12 -14 9
-29 -4 -15 -2 -24 5 -24 7 0 9 -10 7 -25 -3 -14 -1 -25 4 -25 5 0 8 -10 7 -22
-1 -13 2 -32 6 -42 6 -13 4 -21 -4 -24 -8 -3 -6 -8 6 -17 14 -11 15 -16 6 -26
-9 -9 -9 -16 0 -31 10 -15 9 -20 -2 -28 -12 -7 -12 -12 -3 -23 10 -11 9 -17
-3 -27 -11 -9 -12 -16 -5 -25 8 -10 5 -17 -12 -29 -12 -9 -17 -16 -10 -16 16
0 15 -29 -1 -36 -17 -6 -18 -64 -1 -64 7 0 10 8 7 21 -4 15 0 22 16 26 18 4
19 8 9 20 -10 12 -9 17 3 27 9 6 14 17 11 24 -2 7 1 18 7 25 5 7 8 23 4 35 -3
14 -1 22 7 22 10 0 10 3 0 15 -10 12 -10 18 1 31 10 13 10 17 -2 24 -11 8 -12
13 -1 30 8 14 9 20 1 20 -7 0 -9 10 -7 25 3 14 1 25 -5 25 -5 0 -7 11 -5 25 3
14 1 28 -3 31 -18 11 -9 34 14 34 31 0 51 -15 44 -34 -5 -12 0 -16 17 -16 25
0 51 -23 42 -38 -6 -10 85 -22 159 -22 40 0 73 -19 58 -34 -4 -3 2 -12 12 -20
16 -11 17 -17 7 -29 -7 -8 -10 -21 -6 -30 3 -10 -2 -20 -15 -27 -12 -6 -21
-17 -21 -25 0 -16 -30 -35 -57 -35 -13 0 -18 -8 -18 -25 0 -17 5 -25 18 -25
10 0 16 4 13 9 -8 12 13 28 46 36 17 4 25 12 22 20 -3 7 4 19 16 25 11 6 18
16 14 21 -3 6 2 19 11 29 11 13 13 20 5 25 -6 4 -9 14 -6 22 3 8 -1 21 -9 29
-8 8 -12 21 -9 29 7 16 -23 21 -104 16 -52 -3 -98 14 -105 38 -2 11 -18 21
-37 24 -25 6 -31 11 -27 26 3 15 -2 20 -24 25 -20 4 -29 12 -29 25 0 12 -9 21
-25 25 -14 4 -25 13 -25 21 0 22 262 22 280 0 6 -8 9 -19 5 -25 -4 -6 4 -10
18 -10 13 0 32 -9 42 -20 10 -11 14 -20 9 -20 -17 0 21 -20 38 -20 13 0 7 9
-19 32 -20 18 -48 45 -64 61 -15 15 -32 27 -38 27 -18 0 -13 20 14 52 14 16
25 35 25 41 -1 7 -8 -1 -16 -16 -13 -25 -20 -28 -57 -25 -32 2 -44 8 -52 25
-5 13 -22 27 -37 32 -51 18 -35 38 40 51 37 7 31 8 -30 4 -127 -9 -109 15 149
200 84 59 180 135 213 168 65 63 110 142 110 193 0 43 -42 124 -84 164 -42 41
-45 67 -17 141 29 76 94 159 270 344 207 217 268 307 301 445 56 238 -133 509
-562 805 -54 37 -98 72 -98 77 0 5 8 12 18 16 147 50 253 155 349 348 61 122
103 258 134 435 21 114 18 424 -5 528 -44 207 -115 351 -227 461 l-53 51 120
122 c227 233 319 417 317 638 -1 113 -31 218 -90 320 -49 83 -225 261 -320
324 -312 204 -699 322 -1163 355 -167 12 -177 12 -725 -4z m-7485 -925 c2
-151 7 -157 60 -82 66 95 77 83 26 -30 -14 -32 -22 -58 -17 -58 5 0 46 20 92
44 192 102 211 93 43 -21 -110 -74 -115 -78 -88 -84 16 -4 47 -7 69 -8 46 -2
79 -17 55 -25 -8 -3 -46 -9 -85 -13 l-70 -8 122 -83 c68 -46 125 -88 129 -93
12 -21 -26 -6 -144 57 -68 36 -126 64 -128 61 -2 -2 9 -34 26 -70 33 -74 34
-77 20 -77 -5 0 -28 27 -51 60 -23 32 -45 57 -49 55 -4 -2 -10 -60 -14 -127
-4 -68 -10 -134 -13 -148 -6 -22 -7 -23 -14 -5 -4 11 -8 61 -9 110 -1 50 -5
110 -8 134 l-7 43 -49 -63 c-27 -35 -51 -58 -53 -52 -2 6 9 41 26 77 16 36 27
66 24 66 -3 0 -58 -29 -122 -65 -64 -35 -125 -67 -136 -71 -40 -15 8 28 125
110 l114 81 -49 8 c-28 4 -65 10 -82 13 -57 9 -36 21 50 30 l82 9 -112 77
c-171 118 -165 133 14 37 63 -34 117 -59 119 -56 3 3 -6 27 -19 54 -55 108
-41 127 25 33 27 -39 44 -56 49 -48 3 7 9 75 12 150 3 75 9 143 13 150 13 20
23 -52 24 -172z m7655 -792 c4 -81 10 -148 14 -148 3 0 25 27 48 60 24 33 47
60 53 60 10 0 7 -11 -29 -94 -12 -27 -20 -51 -17 -53 2 -2 54 21 115 51 172
87 176 74 13 -36 -115 -77 -117 -85 -22 -88 54 -2 89 -13 72 -24 -7 -4 -43
-10 -82 -13 -38 -3 -70 -9 -70 -12 0 -3 50 -40 111 -81 103 -70 152 -110 134
-110 -4 0 -68 32 -141 71 -74 39 -134 66 -134 61 0 -5 11 -35 25 -66 43 -97
29 -104 -34 -15 -23 33 -45 59 -47 56 -2 -2 -11 -71 -20 -153 -8 -82 -19 -153
-25 -159 -5 -5 -9 49 -9 146 0 86 -3 159 -7 162 -3 4 -26 -20 -50 -53 -24 -33
-48 -60 -53 -60 -14 0 -14 0 20 76 17 37 29 68 27 70 -2 2 -61 -28 -130 -67
-70 -39 -132 -69 -139 -67 -6 2 45 45 115 94 69 49 126 92 127 96 0 3 -30 10
-67 13 -80 9 -111 21 -73 29 14 3 52 9 85 13 l60 9 -45 32 c-25 17 -79 55
-120 84 -41 28 -69 53 -62 56 7 2 64 -24 128 -58 64 -34 118 -59 121 -56 3 2
-7 32 -22 65 -39 85 -26 97 26 24 24 -34 47 -62 50 -62 4 -1 10 50 13 112 15
254 30 267 41 35z m328 -1192 c22 -33 42 -56 43 -51 1 6 5 32 9 59 8 56 25 46
25 -15 0 -20 3 -39 7 -42 3 -4 23 19 44 52 64 101 77 87 22 -22 -13 -27 -22
-52 -19 -55 4 -3 33 7 66 23 33 16 63 26 66 22 3 -3 -17 -22 -45 -42 -28 -20
-51 -41 -51 -46 0 -5 26 -9 58 -9 71 0 99 -15 45 -23 -21 -4 -58 -7 -83 -7
l-44 0 44 -45 c47 -48 45 -57 -8 -25 -52 32 -52 31 -13 -67 29 -74 9 -66 -35
13 -40 71 -46 71 -59 -3 -9 -59 -25 -54 -25 7 0 28 -4 50 -8 50 -5 0 -18 -14
-31 -31 -29 -39 -37 -32 -17 15 8 20 14 36 12 36 -2 0 -29 -11 -60 -25 -69
-31 -73 -16 -6 27 27 18 50 36 50 39 0 4 -33 10 -72 14 -83 9 -70 23 22 25
l55 1 -45 39 c-47 41 -41 52 11 24 17 -8 33 -13 36 -11 2 3 -7 28 -22 57 -14
28 -30 63 -36 77 -9 23 -8 25 7 12 9 -7 34 -40 57 -73z m862 -3314 c5 -12 18
-25 28 -28 35 -11 10 -29 -54 -38 -42 -5 -74 -5 -92 2 -16 6 -35 8 -43 5 -9
-3 -14 1 -14 12 0 12 6 16 18 13 25 -7 69 16 53 26 -24 15 10 37 53 34 31 -2
43 -8 51 -26z m-312 -72 c80 0 87 -2 87 -20 0 -11 -7 -20 -15 -20 -8 0 -22 -9
-32 -19 -10 -11 -34 -24 -53 -29 l-35 -10 47 -1 c26 -1 50 -6 53 -11 10 -17
-15 -40 -42 -40 -14 0 -21 -4 -18 -10 3 -5 -3 -10 -15 -10 -12 0 -19 4 -15 9
3 6 -11 13 -32 17 -52 9 -70 24 -49 40 15 10 14 12 -8 18 -20 5 -24 12 -24 43
0 42 13 56 43 48 11 -2 59 -5 108 -5z m-214 -63 c6 -8 8 -16 5 -20 -10 -9 -34
4 -34 19 0 18 14 18 29 1z m396 -17 c3 -5 -1 -10 -9 -10 -9 0 -16 5 -16 10 0
6 4 10 9 10 6 0 13 -4 16 -10z"/>
<path d="M9185 2910 c-3 -5 -1 -10 4 -10 6 0 11 5 11 10 0 6 -2 10 -4 10 -3 0
-8 -4 -11 -10z"/>
<path d="M9254 2865 c14 -56 26 -76 44 -73 32 7 6 98 -29 98 -17 0 -20 -4 -15
-25z"/>
<path d="M9665 2848 c9 -42 35 -98 45 -98 5 0 14 15 20 34 15 47 -8 96 -46 96
-24 0 -25 -3 -19 -32z"/>
<path d="M9422 2727 c-18 -22 11 -56 35 -41 25 15 23 48 -3 52 -11 2 -26 -3
-32 -11z"/>
<path d="M6626 2616 c3 -9 11 -16 16 -16 13 0 5 23 -10 28 -7 2 -10 -2 -6 -12z"/>
<path d="M6720 2415 c0 -18 4 -23 15 -19 17 7 17 7 9 28 -9 24 -24 19 -24 -9z"/>
<path d="M10338 2433 c6 -2 18 -2 25 0 6 3 1 5 -13 5 -14 0 -19 -2 -12 -5z"/>
<path d="M6395 2420 c-3 -5 1 -10 10 -10 9 0 13 5 10 10 -3 6 -8 10 -10 10 -2
0 -7 -4 -10 -10z"/>
<path d="M10510 2377 c0 -17 -42 -37 -78 -37 -19 0 -30 -7 -37 -22 -7 -16 -20
-24 -42 -26 -22 -2 -30 -7 -27 -17 3 -7 -5 -20 -18 -29 l-22 -16 31 0 c26 0
31 3 26 16 -7 20 13 34 49 34 20 0 26 4 22 14 -8 20 27 36 80 36 34 0 44 3 40
14 -3 9 5 15 26 20 40 8 29 26 -16 26 -22 0 -34 -5 -34 -13z"/>
<path d="M6391 2321 c-11 -19 -11 -25 0 -32 15 -9 23 9 17 39 -3 14 -6 13 -17
-7z"/>
<path d="M6976 2235 c-3 -9 0 -15 9 -15 8 0 15 7 15 15 0 8 -4 15 -9 15 -5 0
-11 -7 -15 -15z"/>
<path d="M9660 2129 c0 -5 5 -7 10 -4 6 3 10 8 10 11 0 2 -4 4 -10 4 -5 0 -10
-5 -10 -11z"/>
<path d="M10857 2124 c-11 -11 3 -24 18 -18 8 4 12 10 9 15 -6 11 -18 12 -27
3z"/>
<path d="M6592 2101 c-9 -5 -11 -17 -6 -35 10 -42 24 -41 24 3 0 23 -1 41 -2
41 -2 0 -9 -4 -16 -9z"/>
<path d="M10841 2071 c-8 -5 -9 -11 -3 -15 14 -8 43 4 36 15 -7 11 -15 11 -33
0z"/>
<path d="M10823 2023 c-7 -2 -13 -14 -13 -25 0 -11 -8 -22 -20 -25 -11 -3 -20
-10 -20 -15 0 -6 10 -8 23 -4 12 3 25 6 29 6 3 0 4 9 1 19 -3 13 2 21 16 26
12 3 19 11 16 16 -7 10 -13 10 -32 2z"/>
<path d="M10766 1921 c-3 -4 6 -13 19 -19 30 -14 44 2 16 17 -24 13 -28 13
-35 2z"/>
<path d="M7120 1900 c0 -5 7 -10 15 -10 8 0 15 5 15 10 0 6 -7 10 -15 10 -8 0
-15 -4 -15 -10z"/>
<path d="M6826 1834 c-35 -46 -40 -64 -20 -71 10 -3 68 106 60 114 -2 2 -20
-17 -40 -43z"/>
<path d="M10796 1873 c-3 -4 3 -13 15 -21 13 -9 24 -11 30 -5 6 6 0 14 -15 21
-13 6 -27 8 -30 5z"/>
<path d="M10830 1815 c0 -15 41 -28 52 -17 4 4 -6 13 -22 19 -24 9 -30 9 -30
-2z"/>
<path d="M7165 1755 c8 -80 14 -102 31 -102 18 0 18 -1 -11 87 l-25 75 5 -60z"/>
<path d="M6531 1766 c-9 -10 -8 -15 4 -20 10 -4 15 1 15 14 0 24 -4 25 -19 6z"/>
<path d="M10864 1769 c-3 -6 -4 -11 -3 -12 2 -1 14 -8 26 -14 15 -9 24 -9 29
-2 3 6 4 11 3 12 -2 1 -14 8 -26 14 -15 9 -24 9 -29 2z"/>
<path d="M8520 1685 c-48 -65 -82 -85 -147 -85 -54 0 -93 21 -93 50 0 24 -16
35 -23 15 -4 -8 -28 -25 -54 -39 -54 -28 -52 -34 4 -11 47 20 60 19 91 -5 15
-12 37 -29 49 -38 21 -15 24 -30 33 -155 6 -75 17 -154 25 -175 l15 -38 173 0
c191 0 318 -20 422 -68 l55 -25 0 76 c0 71 -2 77 -31 104 -23 22 -29 34 -24
51 11 37 42 58 76 51 24 -4 29 -2 29 13 0 11 3 28 6 39 4 17 -2 23 -31 34 -54
19 -198 162 -261 259 -1 2 -11 -2 -22 -9 -17 -11 -40 -11 -119 -1 -54 7 -106
12 -115 12 -10 0 -36 -25 -58 -55z"/>
<path d="M10896 1711 c-3 -5 6 -12 20 -15 19 -5 25 -12 21 -25 -5 -22 40 -48
55 -33 6 6 -1 12 -17 16 -20 5 -26 12 -22 25 3 13 -3 22 -20 30 -29 13 -30 13
-37 2z"/>
<path d="M11745 1678 c11 -6 26 -18 33 -26 6 -9 12 -11 12 -4 0 12 -39 42 -55
42 -5 0 -1 -6 10 -12z"/>
<path d="M6540 1610 c0 -48 15 -53 24 -9 9 45 8 49 -9 49 -11 0 -15 -11 -15
-40z"/>
<path d="M6385 1604 c-3 -20 -4 -38 -1 -41 8 -8 37 57 31 67 -12 19 -23 9 -30
-26z"/>
<path d="M9310 1615 c0 -8 4 -15 10 -15 5 0 7 7 4 15 -4 8 -8 15 -10 15 -2 0
-4 -7 -4 -15z"/>
<path d="M10203 1602 c10 -10 17 -24 17 -30 0 -7 12 -12 26 -12 34 0 67 -18
61 -35 -4 -9 8 -14 41 -18 34 -4 52 -12 67 -31 14 -18 30 -26 52 -26 42 0 85
-20 79 -37 -4 -10 7 -13 42 -12 l47 1 -30 13 c-16 7 -30 19 -30 27 0 8 -18 15
-50 19 -63 7 -88 18 -81 35 4 10 -4 14 -32 14 -39 0 -86 25 -77 40 3 5 -6 12
-20 15 -14 3 -36 7 -50 10 -17 4 -25 12 -25 25 0 15 -7 20 -27 20 -25 0 -25
-1 -10 -18z"/>
<path d="M6456 1583 c-2 -10 -7 -28 -11 -40 -4 -17 -2 -23 8 -23 17 0 27 21
27 56 0 28 -16 32 -24 7z"/>
<path d="M8080 1590 c0 -5 6 -10 14 -10 8 0 18 5 21 10 3 6 -3 10 -14 10 -12
0 -21 -4 -21 -10z"/>
<path d="M9265 1590 c4 -6 11 -8 16 -5 14 9 11 15 -7 15 -8 0 -12 -5 -9 -10z"/>
<path d="M7830 1580 c0 -5 5 -10 11 -10 5 0 7 5 4 10 -3 6 -8 10 -11 10 -2 0
-4 -4 -4 -10z"/>
<path d="M6977 1553 c-12 -12 -7 -33 8 -33 17 0 19 9 7 28 -5 7 -11 9 -15 5z"/>
<path d="M7030 1536 c0 -22 17 -28 24 -10 9 22 8 24 -9 24 -8 0 -15 -6 -15
-14z"/>
<path d="M6011 1438 c14 -29 27 -44 36 -41 20 8 16 16 -23 54 l-36 34 23 -47z"/>
<path d="M10130 1455 c6 -8 10 -20 8 -27 -3 -8 8 -17 26 -23 17 -5 31 -17 31
-25 0 -8 14 -20 30 -26 21 -8 30 -18 29 -33 0 -15 5 -21 20 -21 30 0 50 -16
43 -33 -4 -12 2 -17 21 -19 15 -2 31 -12 36 -23 5 -11 23 -27 40 -35 20 -10
30 -21 28 -32 -2 -13 4 -18 18 -18 12 0 30 -5 41 -11 16 -8 18 -13 8 -25 -9
-11 -7 -14 15 -14 37 0 69 -18 62 -36 -4 -9 1 -14 15 -14 17 0 18 3 9 20 -6
11 -7 20 -3 21 4 0 -10 6 -32 13 -29 8 -41 18 -43 34 -2 15 -10 22 -26 22 -27
0 -51 24 -41 40 4 6 -4 10 -18 10 -27 0 -52 23 -43 39 3 5 -7 12 -23 16 -31 7
-50 23 -48 40 1 5 -7 11 -18 13 -27 5 -47 22 -42 36 2 6 -10 16 -27 21 -17 6
-31 17 -31 25 0 8 -13 22 -30 30 -19 10 -29 21 -27 33 2 12 -4 17 -19 17 -18
0 -19 -3 -9 -15z"/>
<path d="M11104 1399 c-7 -12 13 -29 34 -29 18 0 15 14 -8 27 -13 9 -21 9 -26
2z"/>
<path d="M10688 1383 c23 -8 42 -21 42 -29 0 -11 22 -14 113 -14 l112 0 0 25
c0 14 -6 25 -12 25 -7 0 -12 -6 -10 -12 1 -9 -15 -14 -48 -16 -67 -4 -115 5
-115 23 0 12 -14 15 -62 14 l-63 -1 43 -15z"/>
<path d="M7120 1376 c0 -9 7 -16 16 -16 17 0 14 22 -4 28 -7 2 -12 -3 -12 -12z"/>
<path d="M11910 1375 c0 -9 9 -15 21 -15 18 0 19 2 9 15 -7 8 -16 15 -21 15
-5 0 -9 -7 -9 -15z"/>
<path d="M11127 1343 c-3 -5 5 -13 18 -19 19 -9 25 -9 29 2 3 8 1 14 -3 14 -5
0 -16 3 -24 6 -8 3 -17 2 -20 -3z"/>
<path d="M11966 1325 c-4 -10 1 -15 16 -15 17 0 18 2 8 15 -7 8 -14 15 -15 15
-2 0 -5 -7 -9 -15z"/>
<path d="M11156 1292 c-2 -4 4 -13 14 -20 11 -7 21 -8 25 -2 3 5 -3 14 -14 20
-11 5 -22 6 -25 2z"/>
<path d="M12016 1272 c-3 -6 1 -13 10 -16 23 -9 28 -2 10 13 -8 7 -17 8 -20 3z"/>
<path d="M11175 1241 c-3 -6 3 -15 14 -21 12 -6 22 -6 26 -1 3 6 -3 15 -14 21
-12 6 -22 6 -26 1z"/>
<path d="M9200 1230 c0 -5 5 -10 11 -10 5 0 7 5 4 10 -3 6 -8 10 -11 10 -2 0
-4 -4 -4 -10z"/>
<path d="M12056 1223 c-11 -11 -6 -23 9 -23 8 0 15 4 15 9 0 13 -16 22 -24 14z"/>
<path d="M11197 1193 c-4 -3 -7 -10 -7 -14 0 -11 29 -19 35 -10 6 11 -20 33
-28 24z"/>
<path d="M6260 1156 c0 -9 7 -16 16 -16 9 0 14 5 12 12 -6 18 -28 21 -28 4z"/>
<path d="M12086 1161 c-3 -5 1 -11 9 -15 8 -3 15 -1 15 4 0 13 -18 22 -24 11z"/>
<path d="M11206 1131 c-3 -5 1 -12 10 -15 20 -8 29 -1 19 13 -8 13 -22 14 -29
2z"/>
<path d="M12106 1111 c-3 -5 1 -11 9 -15 8 -3 15 -1 15 4 0 13 -18 22 -24 11z"/>
<path d="M11212 1081 c-11 -7 -10 -10 3 -15 20 -7 38 1 30 15 -7 11 -16 11
-33 0z"/>
<path d="M12126 1061 c-4 -7 -5 -15 -2 -18 9 -9 19 4 14 18 -4 11 -6 11 -12 0z"/>
<path d="M11215 1030 c-11 -17 5 -32 21 -19 7 6 11 15 8 20 -7 12 -21 11 -29
-1z"/>
<path d="M12130 1001 c0 -6 5 -13 10 -16 6 -3 10 1 10 9 0 9 -4 16 -10 16 -5
0 -10 -4 -10 -9z"/>
<path d="M9620 973 c0 -13 5 -23 10 -23 13 0 13 11 0 30 -8 12 -10 11 -10 -7z"/>
<path d="M11205 976 c-11 -8 -14 -16 -8 -19 6 -4 18 0 28 7 11 8 14 16 8 19
-6 4 -18 0 -28 -7z"/>
<path d="M12127 954 c-8 -8 1 -24 14 -24 5 0 9 7 9 15 0 15 -12 20 -23 9z"/>
<path d="M11181 926 c-13 -7 -20 -16 -15 -19 5 -3 20 0 33 7 13 7 20 16 15 19
-5 3 -20 0 -33 -7z"/>
<path d="M12121 901 c-9 -6 -10 -11 -2 -15 13 -8 31 1 31 15 0 11 -11 11 -29
0z"/>
<path d="M11141 876 c-13 -7 -19 -16 -14 -19 15 -10 53 4 53 19 0 17 -8 17
-39 0z"/>
<path d="M12110 850 c-11 -7 -12 -12 -4 -20 8 -8 14 -7 23 4 14 17 1 28 -19
16z"/>
<path d="M6906 841 c-4 -7 -5 -15 -2 -18 9 -9 19 4 14 18 -4 11 -6 11 -12 0z"/>
<path d="M11120 821 c0 -5 5 -13 11 -17 6 -3 9 -15 6 -25 -4 -14 0 -19 15 -19
30 0 60 -20 54 -36 -4 -11 4 -14 37 -14 l42 1 -26 14 c-15 8 -29 21 -32 29 -3
8 -21 16 -39 18 -28 2 -33 7 -33 28 0 15 -7 26 -18 28 -9 2 -17 -1 -17 -7z"/>
<path d="M7140 806 c0 -9 5 -16 10 -16 6 0 10 4 10 9 0 6 -4 13 -10 16 -5 3
-10 -1 -10 -9z"/>
<path d="M12088 803 c-10 -3 -18 -8 -18 -13 0 -16 17 -19 35 -6 20 14 10 25
-17 19z"/>
<path d="M6162 759 c2 -6 8 -10 13 -10 5 0 11 4 13 10 2 6 -4 11 -13 11 -9 0
-15 -5 -13 -11z"/>
<path d="M12055 746 c-11 -8 -14 -15 -8 -19 6 -4 16 0 23 8 17 21 8 28 -15 11z"/>
<path d="M6581 694 c20 -22 25 -23 27 -9 4 19 -13 35 -37 35 -10 0 -7 -8 10
-26z"/>
<path d="M11338 693 c23 -8 42 -21 42 -29 0 -11 14 -14 58 -13 l57 1 -44 14
c-53 16 -60 22 -41 34 10 7 -6 9 -50 9 l-65 -1 43 -15z"/>
<path d="M12001 691 c-9 -6 -10 -11 -2 -15 13 -8 31 1 31 15 0 11 -11 11 -29
0z"/>
<path d="M11514 645 c11 -8 24 -15 29 -15 5 0 7 -6 4 -14 -7 -19 18 -42 28
-26 4 6 1 17 -5 25 -6 8 -9 18 -6 24 7 11 -17 21 -47 21 -22 -1 -22 -1 -3 -15z"/>
<path d="M6881 641 c-8 -6 -9 -11 -3 -15 6 -3 14 -1 17 5 9 14 2 20 -14 10z"/>
<path d="M8865 640 c-3 -5 -1 -10 4 -10 6 0 11 5 11 10 0 6 -2 10 -4 10 -3 0
-8 -4 -11 -10z"/>
<path d="M6385 630 c3 -5 8 -10 11 -10 2 0 4 5 4 10 0 6 -5 10 -11 10 -5 0 -7
-4 -4 -10z"/>
<path d="M11940 630 c0 -13 11 -13 30 0 12 8 11 10 -7 10 -13 0 -23 -4 -23
-10z"/>
<path d="M11556 561 c-4 -7 -5 -15 -2 -18 9 -9 19 4 14 18 -4 11 -6 11 -12 0z"/>
<path d="M11617 544 c-16 -16 9 -24 71 -24 75 0 114 8 106 21 -6 10 -167 12
-177 3z"/>
<path d="M11325 440 c8 -13 55 -13 75 0 11 7 2 10 -33 10 -30 0 -46 -4 -42
-10z"/>
<path d="M10790 412 c0 -15 260 -27 323 -15 47 9 39 11 -74 12 -69 0 -154 4
-188 7 -40 5 -61 3 -61 -4z"/>
<path d="M6865 240 c3 -5 8 -10 11 -10 2 0 4 5 4 10 0 6 -5 10 -11 10 -5 0 -7
-4 -4 -10z"/>
</g>
</svg>
